<svg width="380" height="76" viewBox="0 0 380 76" fill="none" xmlns="http://www.w3.org/2000/svg">
<path d="M64.64 70.08C63.4667 70.08 62.48 69.7067 61.68 68.96C60.9333 68.16 60.56 67.1733 60.56 66V43.12C60.56 39.76 59.7333 37.28 58.08 35.68C56.4267 34.0267 54.2667 33.2 51.6 33.2C48.8267 33.2 46.5333 34.16 44.72 36.08C42.96 38 42.08 40.4533 42.08 43.44H35.44C35.44 39.9733 36.1867 36.9333 37.68 34.32C39.1733 31.6533 41.2533 29.5733 43.92 28.08C46.64 26.5867 49.7333 25.84 53.2 25.84C56.24 25.84 58.9333 26.5067 61.28 27.84C63.6267 29.1733 65.44 31.1467 66.72 33.76C68.0533 36.32 68.72 39.44 68.72 43.12V66C68.72 67.1733 68.3467 68.16 67.6 68.96C66.8533 69.7067 65.8667 70.08 64.64 70.08ZM11.28 70.08C10.1067 70.08 9.12 69.7067 8.32 68.96C7.57333 68.16 7.2 67.1733 7.2 66V30.4C7.2 29.1733 7.57333 28.1867 8.32 27.44C9.12 26.6933 10.1067 26.32 11.28 26.32C12.5067 26.32 13.4933 26.6933 14.24 27.44C14.9867 28.1867 15.36 29.1733 15.36 30.4V66C15.36 67.1733 14.9867 68.16 14.24 68.96C13.4933 69.7067 12.5067 70.08 11.28 70.08ZM38 70.08C36.8267 70.08 35.84 69.7067 35.04 68.96C34.2933 68.16 33.92 67.1733 33.92 66V43.12C33.92 39.76 33.0933 37.28 31.44 35.68C29.7867 34.0267 27.6267 33.2 24.96 33.2C22.1867 33.2 19.8933 34.16 18.08 36.08C16.2667 38 15.36 40.4533 15.36 43.44H10.32C10.32 39.9733 11.0133 36.9333 12.4 34.32C13.7867 31.6533 15.7067 29.5733 18.16 28.08C20.6133 26.5867 23.4133 25.84 26.56 25.84C29.6 25.84 32.2933 26.5067 34.64 27.84C36.9867 29.1733 38.8 31.1467 40.08 33.76C41.4133 36.32 42.08 39.44 42.08 43.12V66C42.08 67.1733 41.7067 68.16 40.96 68.96C40.2133 69.7067 39.2267 70.08 38 70.08ZM102.838 70.32C98.4115 70.32 94.4648 69.3867 90.9981 67.52C87.5848 65.6 84.8915 62.9867 82.9181 59.68C80.9981 56.32 80.0381 52.48 80.0381 48.16C80.0381 43.7867 80.9448 39.9467 82.7581 36.64C84.6248 33.28 87.1848 30.6667 90.4381 28.8C93.6915 26.88 97.4248 25.92 101.638 25.92C105.798 25.92 109.371 26.8533 112.358 28.72C115.345 30.5333 117.611 33.0667 119.158 36.32C120.758 39.52 121.558 43.2267 121.558 47.44C121.558 48.4533 121.211 49.3067 120.518 50C119.825 50.64 118.945 50.96 117.878 50.96H85.6381V44.56H117.638L114.358 46.8C114.305 44.1333 113.771 41.76 112.758 39.68C111.745 37.5467 110.305 35.8667 108.438 34.64C106.571 33.4133 104.305 32.8 101.638 32.8C98.5981 32.8 95.9848 33.4667 93.7981 34.8C91.6648 36.1333 90.0381 37.9733 88.9181 40.32C87.7981 42.6133 87.2381 45.2267 87.2381 48.16C87.2381 51.0933 87.9048 53.7067 89.2381 56C90.5715 58.2933 92.4115 60.1067 94.7581 61.44C97.1048 62.7733 99.7981 63.44 102.838 63.44C104.491 63.44 106.171 63.1467 107.878 62.56C109.638 61.92 111.051 61.2 112.118 60.4C112.918 59.8133 113.771 59.52 114.678 59.52C115.638 59.4667 116.465 59.7333 117.158 60.32C118.065 61.12 118.545 62 118.598 62.96C118.651 63.92 118.225 64.7467 117.318 65.44C115.505 66.88 113.238 68.0533 110.518 68.96C107.851 69.8667 105.291 70.32 102.838 70.32ZM150.243 70.32C146.083 70.32 142.323 69.36 138.963 67.44C135.656 65.4667 133.016 62.8 131.043 59.44C129.123 56.08 128.163 52.2933 128.163 48.08C128.163 43.8667 129.043 40.1067 130.803 36.8C132.616 33.44 135.07 30.8 138.163 28.88C141.256 26.9067 144.75 25.92 148.643 25.92C151.79 25.92 154.696 26.5867 157.363 27.92C160.03 29.2 162.27 30.96 164.083 33.2V11.6C164.083 10.3733 164.456 9.38667 165.203 8.64C166.003 7.89333 166.99 7.52 168.163 7.52C169.39 7.52 170.376 7.89333 171.123 8.64C171.87 9.38667 172.243 10.3733 172.243 11.6V48.08C172.243 52.2933 171.256 56.08 169.283 59.44C167.363 62.8 164.75 65.4667 161.443 67.44C158.136 69.36 154.403 70.32 150.243 70.32ZM150.243 63.12C152.963 63.12 155.39 62.48 157.523 61.2C159.656 59.8667 161.336 58.0533 162.563 55.76C163.79 53.4667 164.403 50.9067 164.403 48.08C164.403 45.2 163.79 42.64 162.563 40.4C161.336 38.16 159.656 36.4 157.523 35.12C155.39 33.7867 152.963 33.12 150.243 33.12C147.576 33.12 145.15 33.7867 142.963 35.12C140.83 36.4 139.123 38.16 137.843 40.4C136.616 42.64 136.003 45.2 136.003 48.08C136.003 50.9067 136.616 53.4667 137.843 55.76C139.123 58.0533 140.83 59.8667 142.963 61.2C145.15 62.48 147.576 63.12 150.243 63.12ZM191.533 70C190.36 70 189.373 69.6267 188.573 68.88C187.826 68.08 187.453 67.0933 187.453 65.92V30.32C187.453 29.0933 187.826 28.1067 188.573 27.36C189.373 26.6133 190.36 26.24 191.533 26.24C192.76 26.24 193.746 26.6133 194.493 27.36C195.24 28.1067 195.613 29.0933 195.613 30.32V65.92C195.613 67.0933 195.24 68.08 194.493 68.88C193.746 69.6267 192.76 70 191.533 70ZM191.533 19.12C190.093 19.12 188.84 18.6133 187.773 17.6C186.76 16.5333 186.253 15.28 186.253 13.84C186.253 12.4 186.76 11.1733 187.773 10.16C188.84 9.09333 190.093 8.56 191.533 8.56C192.973 8.56 194.2 9.09333 195.213 10.16C196.28 11.1733 196.813 12.4 196.813 13.84C196.813 15.28 196.28 16.5333 195.213 17.6C194.2 18.6133 192.973 19.12 191.533 19.12ZM229.034 70.32C225.14 70.32 221.647 69.36 218.554 67.44C215.46 65.4667 213.007 62.8267 211.194 59.52C209.434 56.16 208.554 52.3733 208.554 48.16C208.554 43.9467 209.514 40.16 211.434 36.8C213.407 33.44 216.047 30.8 219.354 28.88C222.714 26.9067 226.474 25.92 230.634 25.92C234.794 25.92 238.527 26.9067 241.834 28.88C245.14 30.8 247.754 33.44 249.674 36.8C251.647 40.16 252.634 43.9467 252.634 48.16H249.514C249.514 52.3733 248.607 56.16 246.794 59.52C245.034 62.8267 242.607 65.4667 239.514 67.44C236.42 69.36 232.927 70.32 229.034 70.32ZM230.634 63.12C233.354 63.12 235.78 62.48 237.914 61.2C240.047 59.8667 241.727 58.08 242.954 55.84C244.18 53.5467 244.794 50.9867 244.794 48.16C244.794 45.28 244.18 42.72 242.954 40.48C241.727 38.1867 240.047 36.4 237.914 35.12C235.78 33.7867 233.354 33.12 230.634 33.12C227.967 33.12 225.54 33.7867 223.354 35.12C221.22 36.4 219.514 38.1867 218.234 40.48C217.007 42.72 216.394 45.28 216.394 48.16C216.394 50.9867 217.007 53.5467 218.234 55.84C219.514 58.08 221.22 59.8667 223.354 61.2C225.54 62.48 227.967 63.12 230.634 63.12ZM248.554 70.08C247.38 70.08 246.394 69.7067 245.594 68.96C244.847 68.16 244.474 67.1733 244.474 66V53.76L245.994 45.28L252.634 48.16V66C252.634 67.1733 252.234 68.16 251.434 68.96C250.687 69.7067 249.727 70.08 248.554 70.08ZM268.698 42.64C268.698 39.44 269.471 36.5867 271.018 34.08C272.618 31.52 274.751 29.4933 277.418 28C280.085 26.5067 283.018 25.76 286.218 25.76C289.418 25.76 291.791 26.2933 293.338 27.36C294.938 28.3733 295.551 29.6 295.178 31.04C295.018 31.7867 294.698 32.3733 294.218 32.8C293.791 33.1733 293.285 33.4133 292.698 33.52C292.111 33.6267 291.471 33.6 290.778 33.44C287.365 32.7467 284.298 32.6933 281.578 33.28C278.858 33.8667 276.698 34.96 275.098 36.56C273.551 38.16 272.778 40.1867 272.778 42.64H268.698ZM268.778 70C267.498 70 266.511 69.68 265.818 69.04C265.125 68.3467 264.778 67.3333 264.778 66V30.24C264.778 28.96 265.125 27.9733 265.818 27.28C266.511 26.5867 267.498 26.24 268.778 26.24C270.111 26.24 271.098 26.5867 271.738 27.28C272.431 27.92 272.778 28.9067 272.778 30.24V66C272.778 67.28 272.431 68.2667 271.738 68.96C271.098 69.6533 270.111 70 268.778 70ZM319.604 70C316.938 70 314.538 69.3333 312.404 68C310.271 66.6133 308.591 64.7467 307.364 62.4C306.138 60.0533 305.524 57.4133 305.524 54.48V16.32C305.524 15.1467 305.898 14.1867 306.644 13.44C307.391 12.6933 308.351 12.32 309.524 12.32C310.698 12.32 311.658 12.6933 312.404 13.44C313.151 14.1867 313.524 15.1467 313.524 16.32V54.48C313.524 56.6133 314.111 58.4 315.284 59.84C316.458 61.28 317.898 62 319.604 62H322.324C323.284 62 324.084 62.3733 324.724 63.12C325.418 63.8667 325.764 64.8267 325.764 66C325.764 67.1733 325.311 68.1333 324.404 68.88C323.551 69.6267 322.431 70 321.044 70H319.604ZM301.844 34.72C300.724 34.72 299.818 34.4 299.124 33.76C298.431 33.12 298.084 32.32 298.084 31.36C298.084 30.2933 298.431 29.44 299.124 28.8C299.818 28.16 300.724 27.84 301.844 27.84H320.324C321.444 27.84 322.351 28.16 323.044 28.8C323.738 29.44 324.084 30.2933 324.084 31.36C324.084 32.32 323.738 33.12 323.044 33.76C322.351 34.4 321.444 34.72 320.324 34.72H301.844ZM356.354 70.32C351.927 70.32 347.98 69.3867 344.514 67.52C341.1 65.6 338.407 62.9867 336.434 59.68C334.514 56.32 333.554 52.48 333.554 48.16C333.554 43.7867 334.46 39.9467 336.274 36.64C338.14 33.28 340.7 30.6667 343.954 28.8C347.207 26.88 350.94 25.92 355.154 25.92C359.314 25.92 362.887 26.8533 365.874 28.72C368.86 30.5333 371.127 33.0667 372.674 36.32C374.274 39.52 375.074 43.2267 375.074 47.44C375.074 48.4533 374.727 49.3067 374.034 50C373.34 50.64 372.46 50.96 371.394 50.96H339.154V44.56H371.154L367.874 46.8C367.82 44.1333 367.287 41.76 366.274 39.68C365.26 37.5467 363.82 35.8667 361.954 34.64C360.087 33.4133 357.82 32.8 355.154 32.8C352.114 32.8 349.5 33.4667 347.314 34.8C345.18 36.1333 343.554 37.9733 342.434 40.32C341.314 42.6133 340.754 45.2267 340.754 48.16C340.754 51.0933 341.42 53.7067 342.754 56C344.087 58.2933 345.927 60.1067 348.274 61.44C350.62 62.7733 353.314 63.44 356.354 63.44C358.007 63.44 359.687 63.1467 361.394 62.56C363.154 61.92 364.567 61.2 365.634 60.4C366.434 59.8133 367.287 59.52 368.194 59.52C369.154 59.4667 369.98 59.7333 370.674 60.32C371.58 61.12 372.06 62 372.114 62.96C372.167 63.92 371.74 64.7467 370.834 65.44C369.02 66.88 366.754 68.0533 364.034 68.96C361.367 69.8667 358.807 70.32 356.354 70.32Z" fill="#2E82D9"/>
<circle cx="192" cy="14" r="6" fill="#EF4B6C"/>
</svg>
