<svg width="148" height="301" viewBox="0 0 148 301" fill="none" xmlns="http://www.w3.org/2000/svg">
<g clip-path="url(#clip0_512778_1747)">
<path d="M146.387 71.5288V26.2222C146.387 19.2677 143.693 12.598 138.898 7.68037C134.103 2.76276 127.599 4.8021e-05 120.817 5.19727e-10H27.2152C23.8573 -2.1679e-05 20.5322 0.678217 17.4299 1.99599C14.3275 3.31376 11.5086 5.24527 9.13417 7.68022C6.75972 10.1152 4.87621 13.0059 3.59116 16.1873C2.30611 19.3687 1.64468 22.7786 1.64466 26.2221V56.3116H0V66.9137H1.64466V78.2225H0V94.4789H1.64466V101.547H0V117.803H1.64466V274.778C1.64464 278.221 2.30603 281.631 3.59105 284.813C4.87606 287.994 6.75955 290.885 9.13396 293.32C11.5084 295.755 14.3272 297.686 17.4295 299.004C20.5319 300.322 23.8569 301 27.2149 301H120.817C124.175 301 127.5 300.322 130.602 299.004C133.705 297.686 136.523 295.755 138.898 293.32C141.272 290.885 143.156 287.994 144.441 284.813C145.726 281.631 146.387 278.221 146.387 274.778V103.779H148V71.5288H146.387Z" fill="#3F3D56"/>
<path d="M121.849 6.82228H109.631C110.193 8.23495 110.408 9.76764 110.256 11.2853C110.104 12.803 109.591 14.2592 108.761 15.5254C107.931 16.7917 106.81 17.8293 105.497 18.5467C104.184 19.2641 102.719 19.6395 101.232 19.6396H47.6083C46.1206 19.6395 44.6557 19.2642 43.3427 18.5467C42.0297 17.8293 40.909 16.7917 40.0791 15.5254C39.2493 14.2592 38.7358 12.803 38.584 11.2853C38.4322 9.76763 38.6467 8.23494 39.2086 6.82227H27.7968C22.7323 6.82227 17.8753 8.88541 14.2942 12.5578C10.713 16.2303 8.70117 21.2111 8.70117 26.4047V274.596C8.70117 277.167 9.19508 279.714 10.1547 282.089C11.1144 284.465 12.521 286.624 14.2942 288.442C16.0673 290.261 18.1724 291.703 20.4892 292.687C22.806 293.672 25.2891 294.178 27.7968 294.178H121.85C126.914 294.178 131.771 292.115 135.352 288.442C138.933 284.77 140.945 279.789 140.945 274.596V274.596V26.4047C140.945 23.8331 140.451 21.2867 139.492 18.9108C138.532 16.535 137.125 14.3762 135.352 12.5578C133.579 10.7394 131.474 9.297 129.157 8.31289C126.84 7.32878 124.357 6.82228 121.849 6.82228V6.82228Z" fill="white"/>
<path d="M78.3292 11.4651H64.3081C64.0327 11.4651 63.7685 11.3529 63.5737 11.1532C63.379 10.9534 63.2695 10.6825 63.2695 10.4C63.2695 10.1176 63.379 9.84665 63.5737 9.64691C63.7685 9.44717 64.0327 9.33496 64.3081 9.33496H78.3292C78.6046 9.33496 78.8688 9.44717 79.0636 9.64691C79.2583 9.84665 79.3678 10.1176 79.3678 10.4C79.3678 10.6825 79.2583 10.9534 79.0636 11.1532C78.8688 11.3529 78.6046 11.4651 78.3292 11.4651Z" fill="white"/>
<path d="M85.3364 11.4651C85.91 11.4651 86.375 10.9883 86.375 10.4C86.375 9.81181 85.91 9.33496 85.3364 9.33496C84.7628 9.33496 84.2979 9.81181 84.2979 10.4C84.2979 10.9883 84.7628 11.4651 85.3364 11.4651Z" fill="white"/>
</g>
<defs>
<clipPath id="clip0_512778_1747">
<rect width="148" height="301" fill="white"/>
</clipPath>
</defs>
</svg>
