<svg width="795" height="458" viewBox="0 0 795 458" fill="none" xmlns="http://www.w3.org/2000/svg">
<g clip-path="url(#clip0_512778_1546)">
<path d="M775.81 458H19.7442C14.583 457.995 9.63495 456.162 5.98548 452.903C2.33601 449.644 0.283177 445.225 0.277344 440.616V24.2898C0.28155 20.9132 1.78542 17.676 4.45902 15.2884C7.13262 12.9007 10.7576 11.5576 14.5387 11.5537H780.769C784.615 11.5576 788.303 12.9239 791.023 15.3528C793.743 17.7818 794.995 21.8725 795 25.3075V440.12C794.994 444.729 793.218 449.644 789.569 452.903C785.919 456.162 780.971 457.995 775.81 458Z" fill="#F0F2F5"/>
<path d="M794.749 26.4323H0.25V17.6989C0.257422 13.0797 2.28568 8.64623 5.89926 5.37275C9.5137 2.09849 14.4182 0.253848 19.5377 0.25L775.462 0.25C780.581 0.253809 785.486 2.09844 789.1 5.3727C792.714 8.64623 794.742 13.0798 794.749 17.6991V26.4323Z" fill="white" stroke="#BDBDBD" stroke-width="0.5"/>
<path d="M34.9028 17.6051C37.3505 17.6051 39.3348 15.6346 39.3348 13.2039C39.3348 10.7732 37.3505 8.80273 34.9028 8.80273C32.455 8.80273 30.4707 10.7732 30.4707 13.2039C30.4707 15.6346 32.455 17.6051 34.9028 17.6051Z" fill="#F99191"/>
<path d="M54.016 17.6051C56.4638 17.6051 58.4481 15.6346 58.4481 13.2039C58.4481 10.7732 56.4638 8.80273 54.016 8.80273C51.5683 8.80273 49.584 10.7732 49.584 13.2039C49.584 15.6346 51.5683 17.6051 54.016 17.6051Z" fill="#FDE392"/>
<path d="M73.1293 17.6051C75.5771 17.6051 77.5614 15.6346 77.5614 13.2039C77.5614 10.7732 75.5771 8.80273 73.1293 8.80273C70.6816 8.80273 68.6973 10.7732 68.6973 13.2039C68.6973 15.6346 70.6816 17.6051 73.1293 17.6051Z" fill="#75DCA1"/>
<path d="M23.3676 39.074H14.6176C14.5685 39.074 14.5283 39.1142 14.5283 39.1633V39.8775C14.5283 39.9267 14.5685 39.9668 14.6176 39.9668H23.3676C23.4167 39.9668 23.4569 39.9267 23.4569 39.8775V39.1633C23.4569 39.1142 23.4167 39.074 23.3676 39.074ZM23.3676 46.0383H14.6176C14.5685 46.0383 14.5283 46.0784 14.5283 46.1275V46.8418C14.5283 46.8909 14.5685 46.9311 14.6176 46.9311H23.3676C23.4167 46.9311 23.4569 46.8909 23.4569 46.8418V46.1275C23.4569 46.0784 23.4167 46.0383 23.3676 46.0383ZM23.3676 42.5561H14.6176C14.5685 42.5561 14.5283 42.5963 14.5283 42.6454V43.3597C14.5283 43.4088 14.5685 43.449 14.6176 43.449H23.3676C23.4167 43.449 23.4569 43.4088 23.4569 43.3597V42.6454C23.4569 42.5963 23.4167 42.5561 23.3676 42.5561Z" fill="white"/>
</g>
<defs>
<clipPath id="clip0_512778_1546">
<rect width="795" height="458" fill="white"/>
</clipPath>
</defs>
</svg>
