<svg xmlns="http://www.w3.org/2000/svg" version="1.1" xmlns:xlink="http://www.w3.org/1999/xlink" width="512" height="512" x="0" y="0" viewBox="0 0 512 512" style="enable-background:new 0 0 512 512" xml:space="preserve" class=""><g><path d="M188.777 320.432a5.67 5.67 0 0 0-4.826 10.262c2.611 1.228 5.285 2.4 7.946 3.478a5.67 5.67 0 1 0 4.264-10.508 146.965 146.965 0 0 1-7.384-3.232zM396.44 144.014a5.67 5.67 0 0 0 10.908-3.1q-.738-2.606-1.561-5.174a5.669 5.669 0 1 0-10.8 3.454q.764 2.395 1.453 4.82zM149.282 74.4a5.654 5.654 0 0 0 3.765-1.431 151.205 151.205 0 0 1 4.917-4.185 5.67 5.67 0 1 0-7.16-8.793 163.352 163.352 0 0 0-5.29 4.5 5.67 5.67 0 0 0 3.768 9.909z" fill="#ffffff" data-original="#000000" class="" opacity="1"></path><path d="M106.823 253.7a162.072 162.072 0 0 0 17.089 28.257l.012.019c.025.033.051.064.076.1.462.612.917 1.23 1.387 1.835.079.1.178.171.262.265a161.651 161.651 0 0 0 15.478 17.083c.109.109.2.231.311.339 1.7 1.658 3.246 3.07 4.61 4.2.03.025.063.041.093.065 3.347 2.942 6.8 5.765 10.392 8.429a5.67 5.67 0 1 0 6.758-9.106 150.33 150.33 0 0 1-14.217-12.015 13.486 13.486 0 0 1-3.724-10.5 13.682 13.682 0 0 1 5.857-10.128l4.088-2.833 80.492-55.775-19.056 262.817h-7.258a5.67 5.67 0 0 0 0 11.34h99.364a5.67 5.67 0 1 0 0-11.34h-5.378a16.785 16.785 0 0 1-16.678-15.511l-.338-4.664-15.788-217.74a5.67 5.67 0 1 0-11.31.819l17.192 237.1H228.1l19.388-267.378a24.6 24.6 0 0 0 13.466-1.046l98.646 68.353a20.265 20.265 0 0 0 11.6 3.652 20.706 20.706 0 0 0 17.535-9.711 161.771 161.771 0 0 0 18.921-42.954c.047-.131.106-.255.143-.391.222-.814.415-1.635.623-2.452a160.884 160.884 0 0 0 .988-4.073c.044-.194.1-.386.139-.58.01-.044.008-.088.017-.132a161.327 161.327 0 0 0 3.32-22.034c.119-.8.219-1.614.261-2.437.048-.967.08-1.92.093-2.853 0-.035-.009-.067-.009-.1.121-2.565.2-5.134.2-7.71 0-3.288-.1-6.621-.3-9.906a5.67 5.67 0 1 0-11.318.69c.186 3.056.28 6.156.28 9.216 0 3.953-.173 7.893-.48 11.817a13.671 13.671 0 0 1-17.187 10.742l-2.384-.677-.525-.15-105.587-30a25.007 25.007 0 0 0-5.992-9.471L289.6 48.782a20.283 20.283 0 0 0-3.818-15.631 20.8 20.8 0 0 0-14.1-8.118 163.08 163.08 0 0 0-43.072.647c-.149.011-.3 0-.445.023-1.022.154-2.035.351-3.053.525-.634.108-1.269.212-1.9.328-1.583.29-3.158.612-4.729.949-.434.093-.874.166-1.307.262-.057.013-.107.039-.162.054a159.236 159.236 0 0 0-22.184 6.7c-.229.079-.464.132-.691.218a73.05 73.05 0 0 0-3.862 1.581c-.09.038-.178.079-.268.117s-.21.088-.3.131l-.021.013q-5.793 2.454-11.41 5.36A5.67 5.67 0 1 0 183.494 52q5.425-2.818 11.039-5.174l.079-.034c1.391-.583 2.8-1.122 4.2-1.662a13.639 13.639 0 0 1 17.593 10.781l18.475 111.258a24.991 24.991 0 0 0-5.992 9.47l-115.446 32.8a20.28 20.28 0 0 0-12.5 10.128 20.786 20.786 0 0 0-1.315 16.222 161.971 161.971 0 0 0 7.196 17.911zm131.971-68.791a13.617 13.617 0 1 1 13.617 13.618 13.633 13.633 0 0 1-13.617-13.618zm148.951 63.946a151.32 151.32 0 0 1-8.615 15.745 9.281 9.281 0 0 1-6.04 4.2 9.04 9.04 0 0 1-7.027-1.438L271.006 201.5a24.854 24.854 0 0 0 6.036-12.752l101.374 28.8 2.9.825h.008l15.885 4.513a150.709 150.709 0 0 1-9.464 25.969zM227.6 54.069v-.023l-2.7-16.277c.484-.089.971-.165 1.456-.25a151.563 151.563 0 0 1 43.978-1.226 9.278 9.278 0 0 1 6.381 3.663 9.042 9.042 0 0 1 1.7 6.969l-18.94 114.059a24.636 24.636 0 0 0-14.115 0zm-116.626 170.8a9.039 9.039 0 0 1 5.573-4.514l111.233-31.61a24.847 24.847 0 0 0 6.036 12.752l-84.976 58.881-4.088 2.833-13.625 9.44a150.853 150.853 0 0 1-20.741-40.451 9.276 9.276 0 0 1 .587-7.334z" fill="#ffffff" data-original="#000000" class="" opacity="1"></path></g></svg>
