<svg xmlns="http://www.w3.org/2000/svg" version="1.1" xmlns:xlink="http://www.w3.org/1999/xlink" width="512" height="512" x="0" y="0" viewBox="0 0 512 512" style="enable-background:new 0 0 512 512" xml:space="preserve"><g><path d="M504.447 367.146 364.23 286.923a15.001 15.001 0 0 0-18.056 2.413l-17.809 17.81-23.539-23.54 68.686-68.69-78.753-78.753-68.683 68.688-21.207-21.208 17.81-17.812a15 15 0 0 0 2.413-18.055L144.873 7.554c-3.92-6.852-12.481-9.493-19.582-6.04L8.463 58.348a15 15 0 0 0-4.045 24.095l140.216 140.223a14.996 14.996 0 0 0 21.214 0l17.809-17.81 23.982 23.984a56.003 56.003 0 0 0-1.568 40.172c-12.302-6.657-26.135-10.199-40.515-10.199-22.787 0-44.211 8.874-60.324 24.988-5.857 5.858-5.857 15.355 0 21.213l39.112 39.113-9.958 9.958c-5.857 5.858-5.857 15.355.001 21.213 2.929 2.93 6.768 4.394 10.606 4.394s7.678-1.465 10.607-4.394l9.957-9.957 39.11 39.112a14.996 14.996 0 0 0 21.214 0c27.254-27.255 32.16-68.51 14.751-100.825a55.753 55.753 0 0 0 18.1 3.007 55.555 55.555 0 0 0 22.131-4.569l26.292 26.293-17.81 17.811c-5.858 5.857-5.858 15.354 0 21.213l140.216 140.223a15 15 0 0 0 24.095-4.045l56.832-116.834c3.452-7.1.811-15.66-6.041-19.581zM144.992 479.692c-63.407 0-114.993-51.589-114.993-115 0-8.284-6.716-15-15-15-8.284 0-15 6.716-15 15 0 79.953 65.043 145 144.992 145 8.284 0 15-6.716 15-15s-6.714-15-14.999-15z" fill="#ffffff" data-original="#000000" opacity="1"></path><path d="M144.992 414.693c-27.568 0-49.996-22.43-49.996-50 0-8.284-6.716-15-15-15-8.284 0-15 6.716-15 15 0 44.112 35.886 80 79.996 80 8.284 0 15-6.715 15-15 0-8.284-6.715-15-15-15zM402.766 185.66c21.442-21.444 21.442-56.337 0-77.781h-.001l-.972-.973c-10.389-10.389-24.199-16.109-38.889-16.109-14.691 0-28.502 5.721-38.889 16.109l-8.043 8.044 78.753 78.752 8.041-8.042z" fill="#ffffff" data-original="#000000" opacity="1"></path></g></svg>
