<svg xmlns="http://www.w3.org/2000/svg" version="1.1" xmlns:xlink="http://www.w3.org/1999/xlink" width="512" height="512" x="0" y="0" viewBox="0 0 512 512" style="enable-background:new 0 0 512 512" xml:space="preserve" class=""><g><path fill-rule="evenodd" d="M256 0c141.385 0 256 114.615 256 256S397.385 512 256 512 0 397.385 0 256 114.615 0 256 0zM102.157 309.701l47.193-27.247-15.565-26.922-47.158 27.237zm146.994-21.179-40.333 131.965c-1.945 6.336 1.628 13.047 7.961 14.985 6.332 1.935 13.054-1.627 14.999-7.966l36.297-118.729 36.297 118.729a12.01 12.01 0 0 0 11.462 8.49c1.168 0 2.371-.167 3.538-.524 6.332-1.939 9.906-8.649 7.96-14.985L281.29 269.966zm142.354-76.918c9.552-5.518 13.301-11.833 13.867-14.083l-70.01-121.255c-2.229-.637-9.587-.534-19.139 4.985l-44.646 25.787c-9.552 5.511-13.337 11.826-13.902 14.076l70.011 121.254c2.229.644 9.587.541 19.139-4.978zm-198.146 81.342 101.849-58.811-46.627-80.78-101.85 58.811c-3.608 2.076-5.837 4.411-6.863 5.897l44.964 77.861c1.805-.151 4.918-.901 8.527-2.978z" clip-rule="evenodd" fill="#ffffff" data-original="#000000" opacity="1"></path></g></svg>
