<svg id="Capa_1" enable-background="new 0 0 511.996 511.996" height="512" viewBox="0 0 511.996 511.996" width="512" xmlns="http://www.w3.org/2000/svg"><g><path d="m481.586 76.956h-111.798c-16.795 0-30.408-13.613-30.408-30.408 0-8.403-3.398-16.002-8.907-21.501-5.499-5.499-13.108-8.907-21.501-8.907h-278.564c-16.795 0-30.408 13.613-30.408 30.408 0 8.403 3.398 16.002 8.907 21.501 5.499 5.499 13.108 8.907 21.501 8.907h45.35c16.795 0 30.408 13.613 30.408 30.408 0 8.403-3.398 16.002-8.907 21.501-5.499 5.499-13.108 8.907-21.501 8.907h-4.768c-16.795 0-30.408 13.613-30.408 30.408 0 8.403 3.408 16.002 8.907 21.501s13.098 8.907 21.501 8.907h62.896c16.785 0 30.408 13.613 30.408 30.408 0 8.403-3.408 16.002-8.907 21.501-5.509 5.499-13.108 8.907-21.501 8.907h-87.538c-16.795 0-30.408 13.613-30.408 30.408 0 8.403 3.398 16.002 8.907 21.501 5.499 5.499 13.108 8.907 21.501 8.907h275.114c16.795 0 30.408-13.613 30.408-30.408 0-8.403 3.408-16.002 8.907-21.501s13.098-8.907 21.501-8.907h4.881c16.795 0 30.408-13.613 30.408-30.408 0-8.403-3.408-16.002-8.907-21.501s-13.098-8.907-21.501-8.907h-64.225c-16.795 0-30.408-13.613-30.408-30.408 0-8.403 3.398-16.002 8.907-21.501 5.499-5.499 13.108-8.907 21.501-8.907h158.651c16.795 0 30.408-13.613 30.408-30.408s-13.612-30.408-30.407-30.408zm-319.053 51.909c-5.499-5.499-8.907-13.098-8.907-21.501 0-16.795 13.613-30.408 30.398-30.408h60.208c8.403 0 16.002 3.408 21.501 8.907s8.907 13.098 8.907 21.501c0 16.795-13.613 30.408-30.408 30.408h-60.208c-8.393 0-15.992-3.408-21.491-8.907zm82.111 130.539h-10.194c-8.403 0-16.002-3.408-21.501-8.907s-8.907-13.098-8.907-21.501c0-16.795 13.613-30.408 30.408-30.408h10.195c8.403 0 16.002 3.408 21.501 8.907s8.907 13.098 8.907 21.501c-.001 16.795-13.614 30.408-30.409 30.408z" fill="#f9f6f6"/><path d="m31.386 46.548c0-16.795 13.613-30.408 30.408-30.408h-31.386c-16.795 0-30.408 13.613-30.408 30.408 0 8.403 3.398 16.002 8.907 21.501 5.499 5.499 13.108 8.907 21.501 8.907h31.386c-8.392 0-16.002-3.408-21.501-8.907-5.509-5.499-8.907-13.098-8.907-21.501zm15.941 243.264c0-16.795 13.613-30.408 30.408-30.408h-31.387c-16.795 0-30.408 13.613-30.408 30.408 0 8.403 3.398 16.002 8.907 21.501 5.499 5.499 13.108 8.908 21.501 8.908h31.386c-8.392 0-16.002-3.408-21.501-8.908-5.508-5.499-8.906-13.098-8.906-21.501zm59.817-212.856h-31.386c16.795 0 30.408 13.613 30.408 30.408 0 8.403-3.398 16.002-8.907 21.501-5.499 5.499-13.108 8.907-21.501 8.907h-4.768c-16.795 0-30.408 13.613-30.408 30.408 0 8.403 3.408 16.002 8.907 21.501s13.098 8.908 21.501 8.908h31.386c-8.403 0-16.002-3.408-21.501-8.908-5.499-5.499-8.907-13.098-8.907-21.501 0-16.795 13.613-30.408 30.408-30.408h4.768c8.392 0 16.002-3.408 21.501-8.907 5.509-5.499 8.907-13.098 8.907-21.501 0-16.795-13.613-30.408-30.408-30.408zm58.128 121.632h-31.386c16.785 0 30.408 13.613 30.408 30.408 0 8.403-3.408 16.002-8.907 21.501-5.509 5.499-13.108 8.908-21.501 8.908h31.386c8.392 0 15.992-3.408 21.501-8.908 5.499-5.499 8.907-13.098 8.907-21.501 0-16.795-13.623-30.408-30.408-30.408z" fill="#dddaec"/><path d="m471.399 259.402h10.189c16.794 0 30.408-13.614 30.408-30.408 0-16.794-13.614-30.408-30.408-30.408h-10.189c-16.794 0-30.408 13.614-30.408 30.408.001 16.794 13.615 30.408 30.408 30.408z" fill="#f9f6f6"/><path d="m476.734 250.496c3.614 3.614 8.124 6.322 13.18 7.744-2.646.762-5.437 1.164-8.32 1.164h-10.194c-8.403 0-16.002-3.408-21.501-8.907s-8.907-13.098-8.907-21.501c0-16.795 13.613-30.408 30.408-30.408h10.195c2.883 0 5.674.401 8.32 1.163-12.748 3.604-22.088 15.333-22.088 29.244-.001 8.403 3.408 16.002 8.907 21.501z" fill="#dddaec"/><path d="m83.435 495.856h79.729c16.794 0 30.408-13.614 30.408-30.408 0-16.794-13.614-30.408-30.408-30.408h-79.729c-16.794 0-30.408 13.614-30.408 30.408 0 16.794 13.614 30.408 30.408 30.408z" fill="#f9f6f6"/><path d="m102.053 486.949c5.499 5.499 13.109 8.907 21.501 8.907h-40.119c-8.392 0-16.002-3.408-21.501-8.907-5.509-5.499-8.907-13.098-8.907-21.501 0-16.795 13.613-30.408 30.408-30.408h40.118c-16.795 0-30.408 13.613-30.408 30.408.001 8.403 3.399 16.002 8.908 21.501z" fill="#dddaec"/><path d="m323.986 373.741c0 16.794-13.614 30.408-30.408 30.408h-22.198c-16.794 0-30.408 13.614-30.408 30.408 0 16.794 13.614 30.408 30.408 30.408h126.976c16.794 0 30.408-13.614 30.408-30.408 0-16.794 13.614-30.408 30.408-30.408h22.199c16.794 0 30.408-13.614 30.408-30.408 0-16.794-13.614-30.408-30.408-30.408h-126.977c-16.794.001-30.408 13.614-30.408 30.408z" fill="#f9f6f6"/><path d="m390.006 343.343c-16.795 0-30.408 13.613-30.408 30.408 0 16.784-13.613 30.408-30.408 30.408h-22.201c-16.784 0-30.408 13.613-30.408 30.398 0 8.403 3.408 16.002 8.907 21.501 5.509 5.499 13.108 8.907 21.501 8.907h-35.609c-8.392 0-16.002-3.408-21.501-8.907-5.509-5.499-8.907-13.098-8.907-21.501 0-16.784 13.613-30.398 30.408-30.398h22.201c16.795 0 30.408-13.623 30.408-30.408 0-16.795 13.613-30.408 30.408-30.408z" fill="#dddaec"/></g></svg>