<svg height="512" viewBox="0 0 64 64" width="512" xmlns="http://www.w3.org/2000/svg"><g id="Artboard_22" data-name="Artboard 22"><path d="m42.563 35.256 15.137 23.692a2 2 0 0 1 -.65 2.753 2 2 0 0 1 -2.753-.65l-14.297-22.333h-4l-14.3 22.333a2 2 0 0 1 -2.753.65 2 2 0 0 1 -.65-2.753l15.14-23.692z" fill="#80828b"/><path d="m40 36.658v23.29a2 2 0 0 1 -2 2 2 2 0 0 1 -2-2v-23.29z" fill="#aaadb9"/><path d="m31.76 33.124-12.853 7.036a2.415 2.415 0 0 1 -1.837.2 2.415 2.415 0 0 1 -1.44-1.156l-1.559-2.841-1.558-2.84a2.411 2.411 0 0 1 -.2-1.835 2.417 2.417 0 0 1 1.157-1.439l33.942-18.84 6.037 9.841-9.412 5.15z" fill="#2a487b"/><path d="m12.804 34.056-4.401 2.417 2.745 4.941 4.452-2.263z" fill="#55575d"/><path d="m7 33.948 5 8.999v2l-4 2.001h-1l-5-10v-1l3-2z" fill="#aaadb9"/><circle cx="38" cy="29.948" fill="#e2e7f7" r="7"/><circle cx="38" cy="29.948" fill="#55575d" r="3"/><path d="m51.914 5.961 1.086-.013a8.913 8.913 0 0 1 8.852 10.465l-.866 2.95z" fill="#76d8ff"/><g fill="#ffc239"><path d="m12 7.948h.021a5.982 5.982 0 0 1 5.979 5.97 5.982 5.982 0 0 1 5.979-5.97 5.982 5.982 0 0 1 -5.979-5.969 5.982 5.982 0 0 1 -5.979 5.969z"/><circle cx="12" cy="21.948" r="2"/><circle cx="32" cy="11.948" r="2"/></g><path d="m54.277 7.2 6.423 10.748a2.406 2.406 0 0 1 .2 1.835 2.407 2.407 0 0 1 -1.157 1.439l-2.743 1.429a2.415 2.415 0 0 1 -1.837.2 2.415 2.415 0 0 1 -1.44-1.156l-6.423-10.473a2.406 2.406 0 0 1 -.2-1.835 2.41 2.41 0 0 1 1.157-1.439l2.743-1.703a2.419 2.419 0 0 1 1.837-.2 2.411 2.411 0 0 1 1.44 1.155z" fill="#ccd2e2"/><path d="m58.823 17.638 1.233-.772-5.779-9.666a2.415 2.415 0 0 0 -3.277-.955l-2.5 1.548 5.127 8.593a3.736 3.736 0 0 0 5.196 1.252z" fill="#e2e7f7"/><path d="m45.765 22.061 2.54-1.358a1.5 1.5 0 0 0 .565-2.114l-3.7-5.936-26.878 14.92.3.485a1.848 1.848 0 0 0 2.483.624l12.253-6.995c4.649-2.712 9.255-.636 10.968.344a1.512 1.512 0 0 0 1.469.03z" fill="#305b99"/><path d="m12.312 31.689a2.411 2.411 0 0 0 .2 1.835l1.558 2.84 1.559 2.841a2.414 2.414 0 0 0 3.277.955l1.93-1.056-5.547-9.864-1.82 1.01a2.417 2.417 0 0 0 -1.157 1.439z" fill="#aaadb9"/><path d="m7 33.948h-2l-.666.444a1.521 1.521 0 0 0 -.509 1.961l2.975 5.8a2.433 2.433 0 0 0 3.247 1.067l1.647-.82z" fill="#ccced5"/></g></svg>